<svg width="238" height="238" viewBox="0 0 238 238" fill="none" xmlns="http://www.w3.org/2000/svg">
<path d="M233 119C233 181.96 181.96 233 119 233C56.0395 233 5 181.96 5 119C5 56.0395 56.0395 5 119 5C181.96 5 233 56.0395 233 119Z" stroke="#297FA7" stroke-width="10"/>
<path d="M124.188 72.375C132 72.375 138.438 65.9375 138.438 58C138.438 50.125 132 43.6875 124.188 43.6875C116.188 43.6875 109.75 50.125 109.75 58C109.75 65.9375 116.188 72.375 124.188 72.375ZM106.312 173.688C108.812 173 110.438 172.188 111.562 170.125L125.5 145.125C125.688 144.688 126 144.5 126.5 144.5H160V176.312C160 180.25 163.188 183.25 166.938 183.25C170.812 183.25 173.938 180.25 173.938 176.312V138.312C173.938 133.812 171.438 131.062 166.75 130.625L138.312 128V92.25C138.312 84.9375 133.188 78.875 124.188 78.875H121.125C115.875 78.875 111.812 79.75 106.625 83.625L85.1875 99.6875C81.3125 102.562 81.5625 108.375 85.5625 111L111.5 128.312V129.625L100.25 160.938L68.125 169.75C64.4375 170.75 62.25 174.562 63.25 178.188C64.375 182.125 67.875 184.062 71.75 183.062L106.312 173.688ZM101.438 104.875L109.938 98.5C110.688 98 111.5 98.3125 111.5 99.25V111.625L101.438 104.875Z" fill="#297FA7"/>
</svg>
