<svg width="112" height="142" viewBox="0 0 112 142" fill="none" xmlns="http://www.w3.org/2000/svg">
<path d="M62.1875 29.375C70 29.375 76.4375 22.9375 76.4375 15C76.4375 7.125 70 0.6875 62.1875 0.6875C54.1875 0.6875 47.75 7.125 47.75 15C47.75 22.9375 54.1875 29.375 62.1875 29.375ZM44.3125 130.688C46.8125 130 48.4375 129.188 49.5625 127.125L63.5 102.125C63.6875 101.688 64 101.5 64.5 101.5H98V133.312C98 137.25 101.188 140.25 104.938 140.25C108.812 140.25 111.938 137.25 111.938 133.312V95.3125C111.938 90.8125 109.438 88.0625 104.75 87.625L76.3125 85V49.25C76.3125 41.9375 71.1875 35.875 62.1875 35.875H59.125C53.875 35.875 49.8125 36.75 44.625 40.625L23.1875 56.6875C19.3125 59.5625 19.5625 65.375 23.5625 68L49.5 85.3125V86.625L38.25 117.938L6.125 126.75C2.4375 127.75 0.25 131.562 1.25 135.188C2.375 139.125 5.875 141.062 9.75 140.062L44.3125 130.688ZM39.4375 61.875L47.9375 55.5C48.6875 55 49.5 55.3125 49.5 56.25V68.625L39.4375 61.875Z" fill="#297FA7"/>
</svg>
