<svg width="138" height="150" viewBox="0 0 138 150" fill="none" xmlns="http://www.w3.org/2000/svg">
<path d="M65.1875 28.9375C73.0625 28.9375 79.4375 22.5625 79.4375 14.5625C79.4375 6.75 73.0625 0.3125 65.1875 0.3125C57.1875 0.3125 50.8125 6.75 50.8125 14.5625C50.8125 22.5625 57.1875 28.9375 65.1875 28.9375ZM6.125 146.438C8.8125 148.938 13.0625 149.438 16.0625 146.438L43.9375 118.625C45.8125 116.812 46.125 115.312 45.9375 112.75L44.4375 96.1875C44.3125 94.9375 45.5 94.375 46.4375 95.1875L65.1875 111.312L75.5625 143.5C76.8125 147.562 80.9375 149.125 84.375 148.125C88.3125 146.875 90.1875 142.938 89 139.25L78.1875 105.188C77.8125 104.188 77.25 103.062 76.375 102.25L55.1875 81.25L68.75 54C69.25 53.0625 70.25 52.875 71.0625 53.625L86.5 69.1875C87.25 69.9375 88.375 70.5625 89.375 70.875L120.375 80.1875C123.125 81 127.688 79.9375 129.188 75.3125C130.25 71.625 128.125 67.6875 124.375 66.5625L95.1875 57.9375L78.4375 41.0625C74.5625 37.1875 70.0625 35.4375 64.6875 35.4375H20.375C17.6875 35.4375 15.3125 37 14.0625 39.375L1.6875 64.0625C0 67.5 1.1875 71.75 4.875 73.4375C8.4375 75.1875 12.5 73.875 14.3125 70.3125L24.625 49.5625H37.375C38.625 49.5625 39.25 50.6875 38.6875 51.75L29.125 71C25.6875 77.9375 24.75 86.0625 26.625 93.625L31.125 111.375L6.0625 136.312C3.3125 139.062 3.375 143.688 6.125 146.438ZM122.438 118.25C131.062 118.25 138 111.312 138 102.688C138 94.0625 131.062 87.125 122.438 87.125C113.812 87.125 106.875 94.0625 106.875 102.688C106.875 111.312 113.812 118.25 122.438 118.25Z" fill="#297FA7"/>
</svg>
