<svg width="312" height="312" viewBox="0 0 312 312" fill="none" xmlns="http://www.w3.org/2000/svg">
<path d="M155.982 311.037C241.701 311.037 311.19 241.456 311.19 155.624C311.19 69.7919 241.701 0.211182 155.982 0.211182C70.2626 0.211182 0.773438 69.7919 0.773438 155.624C0.773438 241.456 70.2626 311.037 155.982 311.037Z" fill="url(#paint0_linear_196_370)"/>
<path d="M69.4062 209H132.688C137.814 209 141.33 205.924 141.33 201.017C141.33 196.109 137.888 193.033 132.688 193.033H82.8828V192.521L135.69 119.938C137.595 117.228 138.693 115.396 138.693 112.467C138.693 106.9 134.885 103.312 128.879 103.312H68.7471C63.5469 103.312 60.1045 106.388 60.1045 111.295C60.1045 116.202 63.5469 119.278 68.7471 119.278H115.842V119.791L62.668 192.447C60.6172 195.304 59.7383 197.428 59.7383 200.138C59.7383 205.484 63.6201 209 69.4062 209ZM202.721 210.758C233.483 210.758 252.818 189.811 252.818 156.192C252.818 122.574 233.483 101.554 202.721 101.554C171.886 101.554 152.55 122.574 152.55 156.192C152.55 189.811 171.886 210.758 202.721 210.758ZM202.721 194.645C183.824 194.645 171.886 179.703 171.886 156.192C171.886 132.608 183.824 117.667 202.721 117.667C221.544 117.667 233.556 132.608 233.556 156.192C233.556 179.703 221.544 194.645 202.721 194.645Z" fill="#F7F7F5"/>
<defs>
<linearGradient id="paint0_linear_196_370" x1="155.982" y1="0.211182" x2="155.982" y2="311.037" gradientUnits="userSpaceOnUse">
<stop stop-color="#FFB340" stop-opacity="0.65"/>
<stop offset="0.479167" stop-color="#FFB340"/>
</linearGradient>
</defs>
</svg>
