<svg width="140" height="120" viewBox="0 0 140 120" fill="none" xmlns="http://www.w3.org/2000/svg">
<path d="M70.3125 29.4375C78.1875 29.4375 84.625 23 84.625 15.0625C84.625 7.1875 78.1875 0.75 70.3125 0.75C62.375 0.75 55.9375 7.1875 55.9375 15.0625C55.9375 23 62.375 29.4375 70.3125 29.4375ZM11 89.0625L43 91.75C48 92.1875 50.4375 92.75 55.3125 94.125L94.25 105.062L129.312 117.938C132.5 119.062 137 117.938 138.25 113.688C139.375 110.125 137.75 106.188 134.188 104.875L99.1875 92.125C98.625 91.9375 97.5 91.5 97.0625 91.3125L70.3125 81.625C73.875 74.6875 78.6875 63.75 79.9375 51.8125C80.0625 50.625 80.6875 50.125 81.75 50.125H128.5C132.375 50.125 135.438 46.9375 135.438 43.1875C135.438 39.3125 132.375 36.1875 128.5 36.1875H77.25C68.6875 36.1875 67.9375 36.1875 58.625 33.625L10.125 20.1875C6.4375 19.125 2.6875 21.375 1.5625 25C0.5625 28.75 2.75 32.5625 6.4375 33.625L51.6875 46.125C52.625 46.375 53.1875 47 53.0625 48.125C51.6875 59.25 46.25 70.0625 43.3125 75.1875H18.5625V49.625C18.5625 45.8125 15.25 42.75 11.5625 42.75C7.75 42.75 4.5625 45.8125 4.5625 49.625V82.0625C4.5625 86.125 6.4375 88.625 11 89.0625Z" fill="#297FA7"/>
</svg>
