<svg width="311" height="311" viewBox="0 0 311 311" fill="none" xmlns="http://www.w3.org/2000/svg">
<path d="M155.208 310.826C240.928 310.826 310.417 241.245 310.417 155.413C310.417 69.5807 240.928 0 155.208 0C69.4891 0 0 69.5807 0 155.413C0 241.245 69.4891 310.826 155.208 310.826Z" fill="url(#paint0_linear_196_367)"/>
<path d="M73.75 209.465C79.6094 209.465 83.1982 205.803 83.1982 199.65V168.229H104.365L123.188 202.653C126.118 207.854 128.315 209.465 132.783 209.465C138.203 209.465 142.305 205.803 142.305 200.822C142.305 198.625 141.865 197.014 140.254 194.304L123.555 165.007C135.786 160.246 142.817 148.967 142.817 135.197C142.817 114.982 129.121 102.312 106.27 102.312H73.75C67.8906 102.312 64.3018 105.974 64.3018 112.126V199.65C64.3018 205.803 67.8906 209.465 73.75 209.465ZM83.1982 153.728V117.619H104.146C116.084 117.619 123.481 124.504 123.481 135.637C123.481 147.062 116.523 153.728 104.512 153.728H83.1982ZM204.208 209.758C223.984 209.758 238.998 201.115 245.736 186.76C246.908 184.27 247.494 182.072 247.494 179.655C247.494 174.675 243.905 171.232 238.705 171.232C234.604 171.232 232.187 172.99 230.282 177.312C225.448 188.444 216.147 193.718 204.062 193.718C185.751 193.718 174.179 178.85 174.179 155.119C174.179 131.535 185.824 116.594 203.988 116.594C215.487 116.594 225.082 122.526 229.989 133.879C232.04 138.493 234.897 140.544 239.218 140.544C244.272 140.544 247.567 137.321 247.567 132.268C247.567 130.07 246.982 127.58 245.81 125.163C238.852 109.709 223.398 100.554 203.842 100.554C173.959 100.554 154.843 121.428 154.843 155.119C154.843 189.03 173.666 209.758 204.208 209.758Z" fill="#F7F7F5"/>
<defs>
<linearGradient id="paint0_linear_196_367" x1="155.208" y1="0" x2="155.208" y2="310.826" gradientUnits="userSpaceOnUse">
<stop stop-color="#FF6482" stop-opacity="0.65"/>
<stop offset="0.479167" stop-color="#FF6482"/>
</linearGradient>
</defs>
</svg>
