<svg width="154" height="158" viewBox="0 0 154 158" fill="none" xmlns="http://www.w3.org/2000/svg">
<path d="M77.0625 29.375C84.9375 29.375 91.375 23 91.375 15C91.375 7.125 84.9375 0.75 77.0625 0.75C69.125 0.75 62.6875 7.125 62.6875 15C62.6875 23 69.125 29.375 77.0625 29.375ZM14.125 109.125H17.625C20.5625 109.125 22.625 107 22.625 104.062V91.4375H31.375L31.0625 92.125C29.375 95.5625 30.8125 99.75 34.0625 101.375C37.4375 103.125 41.5625 101.688 43.25 98.3125L46.6875 91.4375H107.438L110.812 98.3125C112.5 101.688 116.625 103.125 120.062 101.375C123.25 99.75 124.688 95.5625 123 92.125L122.688 91.4375H131.375V104.062C131.375 107 133.375 109.125 136.375 109.125H139.875C142.812 109.125 144.875 107 144.875 104.062V91.4375H149.5C151.875 91.4375 153.812 89.5 153.812 87.125C153.812 84.6875 151.875 82.75 149.5 82.75H144.875V70.125C144.875 67.125 142.812 65.0625 139.875 65.0625H136.375C133.375 65.0625 131.375 67.125 131.375 70.125V82.75H118.375L99.625 44.8125C96.75 39 91.375 35.6875 84.6875 35.6875H69.375C62.6875 35.6875 57.3125 39 54.4375 44.8125L35.6875 82.75H22.625V70.125C22.625 67.125 20.5625 65.0625 17.625 65.0625H14.125C11.1875 65.0625 9.125 67.125 9.125 70.125V82.75H4.5C2.0625 82.75 0.1875 84.6875 0.1875 87.125C0.1875 89.5 2.0625 91.4375 4.5 91.4375H9.125V104.062C9.125 107 11.1875 109.125 14.125 109.125ZM62.5625 76.1875H91.5625V63.3125C91.5625 62.3125 92.9375 62 93.4375 63.125L103.125 82.75H50.9375L60.6875 63.125C61.25 62 62.5625 62.3125 62.5625 63.25V76.1875ZM51.125 156.438C54.4375 157.062 58.1875 155.375 59.1875 150.75L65.125 123.438L77.0625 102.75L88.9375 123.438L94.875 150.75C95.875 155.562 99.9375 157.188 103.25 156.312C106.5 155.562 109.188 152.438 108.188 147.75L102.125 119.5C102.062 119 101.938 118.562 101.75 118L94.6875 98.0625H59.4375L52.3125 118C52.125 118.562 52 119 51.9375 119.5L45.875 147.75C44.875 152.625 47.75 155.75 51.125 156.438Z" fill="#297FA7"/>
</svg>
