<svg width="301" height="107" viewBox="0 0 301 107" fill="none" xmlns="http://www.w3.org/2000/svg">
<path d="M40.1556 43.7227C52.2762 43.7227 61.9927 33.9954 61.9927 21.8614C61.9927 9.82757 52.2762 0 40.1556 0C28.1351 0 18.4186 9.82757 18.4186 21.8614C18.4186 33.9954 28.1351 43.7227 40.1556 43.7227ZM105.667 104.193H134.316C158.056 104.193 164.768 90.6543 162.764 75.1107L156.153 22.463H207.54C213.35 22.463 217.858 17.8501 217.858 12.0338C217.858 6.31772 213.35 1.80506 207.54 1.80506H143.431C137.522 1.80506 133.014 5.9166 133.014 12.9363V66.0855H115.885C106.769 66.0855 99.0559 62.7761 94.6483 55.7565C93.6466 54.152 93.6466 51.7452 95.5499 49.539L121.293 18.9531C127.304 11.9335 122.496 1.80506 113.781 1.80506H77.6193C71.9096 1.80506 67.3018 6.31772 67.3018 12.0338C67.3018 17.9504 71.7093 22.463 77.6193 22.463H92.2442L77.2187 40.2129C66.5004 52.9486 56.9842 61.7733 40.9569 68.8933L25.3304 75.913L30.2387 58.5643C31.8414 52.8482 28.1351 47.2325 22.8261 46.0291C17.2165 44.6252 11.607 48.0347 10.2046 53.3497L0.488062 91.3563C-2.21654 101.585 6.7988 106.8 15.714 102.888L48.069 88.5485C51.3747 87.2448 53.278 87.3451 55.7822 89.3507C66.1999 98.1755 82.8282 104.193 105.667 104.193ZM216.255 80.9271H290.682C296.391 80.9271 301 76.3141 301 70.4978C301 64.7817 296.391 60.1689 290.682 60.1689H215.254C214.453 60.1689 213.451 60.1689 212.349 60.2691L171.078 63.6787L172.481 73.7068C173.182 79.6235 173.082 85.0386 171.88 89.8521L216.255 80.9271Z" fill="#297FA7"/>
</svg>
