<svg width="238" height="238" viewBox="0 0 238 238" fill="none" xmlns="http://www.w3.org/2000/svg">
<path d="M119 238C184.722 238 238 184.722 238 119C238 53.2781 184.722 0 119 0C53.2781 0 0 53.2781 0 119C0 184.722 53.2781 238 119 238Z" fill="url(#paint0_linear_239_237)"/>
<path d="M89.625 79.625C97.5 79.625 103.938 73.25 103.938 65.25C103.938 57.375 97.5 51 89.625 51C81.75 51 75.25 57.375 75.25 65.25C75.25 73.25 81.75 79.625 89.625 79.625ZM184.062 168.312L142.125 145.688L117.875 128.812C116.188 127.625 114.688 126.25 113.375 124.688C115.688 123 116.625 120.188 115.875 117.375L111.125 98.0625C109.438 91 103 86.1875 95.8125 86.1875H80.625C75.9375 86.1875 72.5625 87.3125 69.375 90.5L52.1875 107.75C49.9375 109.938 49.5625 113.438 51.125 116.188L63.125 137.25V174.438C63.125 178.188 66.3125 181.438 70.125 181.438C73.9375 181.438 77.125 178.188 77.125 174.438V142.875L113.625 145.562L136 158.25L177.5 180.5C181.562 182.688 185.5 180.625 187 177.75C188.688 174.312 187.438 170.125 184.062 168.312ZM65.875 113.875L76.3125 103.312L84.625 124.75L78.1875 128.438H74.25L65.875 113.875Z" fill="#F7F7F5"/>
<defs>
<linearGradient id="paint0_linear_239_237" x1="119" y1="0" x2="119" y2="238" gradientUnits="userSpaceOnUse">
<stop stop-color="#297FA7" stop-opacity="0.88"/>
<stop offset="0.479167" stop-color="#297FA7"/>
</linearGradient>
</defs>
</svg>
