<svg width="311" height="312" viewBox="0 0 311 312" fill="none" xmlns="http://www.w3.org/2000/svg">
<path d="M155.208 311.037C240.928 311.037 310.417 241.456 310.417 155.624C310.417 69.7919 240.928 0.211182 155.208 0.211182C69.4891 0.211182 0 69.7919 0 155.624C0 241.456 69.4891 311.037 155.208 311.037Z" fill="url(#paint0_linear_196_368)"/>
<path d="M77.4062 209H140.688C145.814 209 149.33 205.924 149.33 201.017C149.33 196.109 145.888 193.033 140.688 193.033H90.8828V192.521L143.69 119.938C145.595 117.228 146.693 115.396 146.693 112.467C146.693 106.9 142.885 103.312 136.879 103.312H76.7471C71.5469 103.312 68.1045 106.388 68.1045 111.295C68.1045 116.202 71.5469 119.278 76.7471 119.278H123.842V119.791L70.668 192.447C68.6172 195.304 67.7383 197.428 67.7383 200.138C67.7383 205.484 71.6201 209 77.4062 209ZM201.785 210.758C227.2 210.758 243.094 198.014 243.094 177.799C243.094 162.125 233.719 153.189 211.453 148.575L200.101 146.231C186.917 143.448 181.644 138.834 181.644 131.656C181.644 122.794 189.993 117.228 201.712 117.228C211.6 117.228 219.144 121.036 222.733 129.972C224.71 134.073 227.42 135.978 231.815 135.978C236.722 135.978 240.018 132.828 240.018 128.214C240.018 126.456 239.798 125.064 239.359 123.893C235.037 109.903 220.535 101.554 201.859 101.554C178.934 101.554 162.601 114.151 162.601 132.755C162.601 148.209 172.488 158.17 193.655 162.491L205.008 164.835C218.777 167.691 224.051 172.379 224.051 179.996C224.051 188.785 215.115 195.084 202.371 195.084C191.092 195.084 182.01 190.982 178.714 181.827C176.663 177.579 174.026 175.895 169.852 175.895C164.871 175.895 161.502 179.264 161.502 184.537C161.502 186.295 161.868 188.199 162.527 189.957C166.629 201.969 180.692 210.758 201.785 210.758Z" fill="#F7F7F5"/>
<defs>
<linearGradient id="paint0_linear_196_368" x1="155.208" y1="0.211182" x2="155.208" y2="311.037" gradientUnits="userSpaceOnUse">
<stop stop-color="#70D7FF" stop-opacity="0.65"/>
<stop offset="0.479167" stop-color="#70D7FF"/>
</linearGradient>
</defs>
</svg>
