<svg width="238" height="238" viewBox="0 0 238 238" fill="none" xmlns="http://www.w3.org/2000/svg">
<path d="M233 119C233 181.96 181.96 233 119 233C56.0395 233 5 181.96 5 119C5 56.0395 56.0395 5 119 5C181.96 5 233 56.0395 233 119Z" stroke="#297FA7" stroke-width="10"/>
<path d="M115.688 71.125C123.562 71.125 129.938 64.6875 129.938 56.75C129.938 48.875 123.562 42.5 115.688 42.5C107.75 42.5 101.312 48.875 101.312 56.75C101.312 64.6875 107.75 71.125 115.688 71.125ZM58.5 195.125C61.375 197.625 65.75 197.438 68.375 194.438L91.0625 168.562C92.375 167.062 93.0625 165.5 93.25 163.562L95.9375 137.188C96.0625 136.062 97.3125 135.625 98.0625 136.5L115.25 156.312V189.875C115.25 193.688 118.375 196.938 122.312 196.938C126.125 196.938 129.375 193.688 129.375 189.875V154C129.375 152.062 128.75 150.75 127.938 149.5L108.688 121.438L118.062 93.5C118.5 92.125 119.25 91.6875 120.625 91.6875H161.812C163.312 95.625 167.125 98.375 171.625 98.375C177.25 98.375 181.938 93.75 181.938 87.9375C181.938 82.3125 177.375 77.6875 171.75 77.625C171.688 77.625 171.625 77.625 171.625 77.625H94.875C89.4375 77.625 84.9375 79.1875 80.5625 83.5625L68 96.1875C63.5 100.75 65.9375 108.188 72.1875 108.188H83.375L81.0625 115.25C79.6875 119.312 79.0625 123.625 79.0625 127.75V160.875L57.75 185.188C55.125 188.125 55.5 192.562 58.5 195.125Z" fill="#297FA7"/>
</svg>
