<svg width="238" height="238" viewBox="0 0 238 238" fill="none" xmlns="http://www.w3.org/2000/svg">
<path d="M233 119C233 181.96 181.96 233 119 233C56.0395 233 5 181.96 5 119C5 56.0395 56.0395 5 119 5C181.96 5 233 56.0395 233 119Z" stroke="#297FA7" stroke-width="10"/>
<path d="M87 196.375C90.875 196.375 93.875 193.375 93.875 189.625V159.375L110.938 141.125C111.438 140.625 112.188 140.688 112.562 141.25L129.125 163.312L143.562 192.125C147.938 200.75 160.062 194.562 155.938 186.312L126.125 126.562C123.438 121.312 122.125 114.125 121.438 106.875C121.312 104.75 122.375 103.938 124.25 104.875L135.875 110.75L146.688 132.375C150.812 140.625 163.312 135 158.875 126.25L147.062 102.688C146.375 101.312 145.312 100.25 143.938 99.5625L127 91.0625C122 88.5 116.75 87.5 112 86.3125C106.5 85 101.75 83.375 98.5625 78.75L90.9375 67.625V45.75C90.9375 42.0625 87.75 39 84.0625 39C80.25 39 77.1875 42.0625 77.1875 45.75V69.875C77.1875 71.375 77.5625 72.4375 78.375 73.6875L91.9375 93.1875C93.125 94.875 93.8125 96 94.0625 98.8125C94.625 105.875 96.125 118.875 98.9375 128.438L81.5 152.625C80.5625 153.938 80.25 155.25 80.25 156.625V189.625C80.25 193.375 83.1875 196.375 87 196.375ZM116.688 79.875C124.562 79.875 130.938 73.4375 130.938 65.5C130.938 57.625 124.562 51.25 116.688 51.25C108.75 51.25 102.312 57.625 102.312 65.5C102.312 73.4375 108.75 79.875 116.688 79.875Z" fill="#297FA7"/>
</svg>
