<svg width="87" height="162" viewBox="0 0 87 162" fill="none" xmlns="http://www.w3.org/2000/svg">
<path d="M10 157.375C13.875 157.375 16.875 154.375 16.875 150.625V120.375L33.9375 102.125C34.4375 101.625 35.1875 101.688 35.5625 102.25L52.125 124.312L66.5625 153.125C70.9375 161.75 83.0625 155.562 78.9375 147.312L49.125 87.5625C46.4375 82.3125 45.125 75.125 44.4375 67.875C44.3125 65.75 45.375 64.9375 47.25 65.875L58.875 71.75L69.6875 93.375C73.8125 101.625 86.3125 96 81.875 87.25L70.0625 63.6875C69.375 62.3125 68.3125 61.25 66.9375 60.5625L50 52.0625C45 49.5 39.75 48.5 35 47.3125C29.5 46 24.75 44.375 21.5625 39.75L13.9375 28.625V6.75C13.9375 3.0625 10.75 0 7.0625 0C3.25 0 0.1875 3.0625 0.1875 6.75V30.875C0.1875 32.375 0.5625 33.4375 1.375 34.6875L14.9375 54.1875C16.125 55.875 16.8125 57 17.0625 59.8125C17.625 66.875 19.125 79.875 21.9375 89.4375L4.5 113.625C3.5625 114.938 3.25 116.25 3.25 117.625V150.625C3.25 154.375 6.1875 157.375 10 157.375ZM39.6875 40.875C47.5625 40.875 53.9375 34.4375 53.9375 26.5C53.9375 18.625 47.5625 12.25 39.6875 12.25C31.75 12.25 25.3125 18.625 25.3125 26.5C25.3125 34.4375 31.75 40.875 39.6875 40.875Z" fill="#297FA7"/>
</svg>
