<svg width="312" height="311" viewBox="0 0 312 311" fill="none" xmlns="http://www.w3.org/2000/svg">
<path d="M155.982 310.826C241.701 310.826 311.19 241.245 311.19 155.413C311.19 69.5807 241.701 0 155.982 0C70.2626 0 0.773438 69.5807 0.773438 155.413C0.773438 241.245 70.2626 310.826 155.982 310.826Z" fill="url(#paint0_linear_196_369)"/>
<path d="M84.4062 208H147.688C152.814 208 156.33 204.924 156.33 200.017C156.33 195.109 152.888 192.033 147.688 192.033H97.8828V191.521L150.69 118.938C152.595 116.228 153.693 114.396 153.693 111.467C153.693 105.9 149.885 102.312 143.879 102.312H83.7471C78.5469 102.312 75.1045 105.388 75.1045 110.295C75.1045 115.202 78.5469 118.278 83.7471 118.278H130.842V118.791L77.668 191.447C75.6172 194.304 74.7383 196.428 74.7383 199.138C74.7383 204.484 78.6201 208 84.4062 208ZM181.026 208H230.978C236.178 208 239.62 204.924 239.62 200.017C239.62 195.109 236.105 192.033 230.978 192.033H190.475V110.881C190.475 104.655 186.959 101.066 181.026 101.066C175.167 101.066 171.578 104.655 171.578 110.881V198.186C171.578 204.338 175.167 208 181.026 208Z" fill="#F7F7F5"/>
<defs>
<linearGradient id="paint0_linear_196_369" x1="155.982" y1="0" x2="155.982" y2="310.826" gradientUnits="userSpaceOnUse">
<stop stop-color="#FFD426" stop-opacity="0.65"/>
<stop offset="0.479167" stop-color="#FFD426"/>
</linearGradient>
</defs>
</svg>
