<svg width="311" height="311" viewBox="0 0 311 311" fill="none" xmlns="http://www.w3.org/2000/svg">
<path d="M155.79 310.826C241.51 310.826 310.999 241.245 310.999 155.413C310.999 69.5807 241.51 0 155.79 0C70.0712 0 0.582031 69.5807 0.582031 155.413C0.582031 241.245 70.0712 310.826 155.79 310.826Z" fill="url(#paint0_linear_196_371)"/>
<path d="M71.4062 208H134.688C139.814 208 143.33 204.924 143.33 200.017C143.33 195.109 139.888 192.033 134.688 192.033H84.8828V191.521L137.69 118.938C139.595 116.228 140.693 114.396 140.693 111.467C140.693 105.9 136.885 102.312 130.879 102.312H70.7471C65.5469 102.312 62.1045 105.388 62.1045 110.295C62.1045 115.202 65.5469 118.278 70.7471 118.278H117.842V118.791L64.668 191.447C62.6172 194.304 61.7383 196.428 61.7383 199.138C61.7383 204.484 65.6201 208 71.4062 208ZM167.734 209.245C173.373 209.245 176.816 205.729 176.816 199.724V133.879H177.475L226.84 203.605C229.843 207.854 232.333 209.245 236.654 209.245C242.807 209.245 246.249 205.803 246.249 199.797V110.588C246.249 104.582 242.88 101.066 237.167 101.066C231.527 101.066 228.085 104.582 228.085 110.588V176.359H227.426L178.207 106.706C175.131 102.531 172.567 101.066 168.393 101.066C162.314 101.066 158.578 104.729 158.578 110.808V199.724C158.578 205.729 162.021 209.245 167.734 209.245Z" fill="#F7F7F5"/>
<defs>
<linearGradient id="paint0_linear_196_371" x1="155.79" y1="0" x2="155.79" y2="310.826" gradientUnits="userSpaceOnUse">
<stop stop-color="#30DB5B" stop-opacity="0.65"/>
<stop offset="0.479167" stop-color="#30DB5B"/>
</linearGradient>
</defs>
</svg>
