<svg width="127" height="156" viewBox="0 0 127 156" fill="none" xmlns="http://www.w3.org/2000/svg">
<path d="M60.6875 29.125C68.5625 29.125 74.9375 22.6875 74.9375 14.75C74.9375 6.875 68.5625 0.5 60.6875 0.5C52.75 0.5 46.3125 6.875 46.3125 14.75C46.3125 22.6875 52.75 29.125 60.6875 29.125ZM3.5 153.125C6.375 155.625 10.75 155.438 13.375 152.438L36.0625 126.562C37.375 125.062 38.0625 123.5 38.25 121.562L40.9375 95.1875C41.0625 94.0625 42.3125 93.625 43.0625 94.5L60.25 114.312V147.875C60.25 151.688 63.375 154.938 67.3125 154.938C71.125 154.938 74.375 151.688 74.375 147.875V112C74.375 110.062 73.75 108.75 72.9375 107.5L53.6875 79.4375L63.0625 51.5C63.5 50.125 64.25 49.6875 65.625 49.6875H106.812C108.312 53.625 112.125 56.375 116.625 56.375C122.25 56.375 126.938 51.75 126.938 45.9375C126.938 40.3125 122.375 35.6875 116.75 35.625C116.688 35.625 116.625 35.625 116.625 35.625H39.875C34.4375 35.625 29.9375 37.1875 25.5625 41.5625L13 54.1875C8.5 58.75 10.9375 66.1875 17.1875 66.1875H28.375L26.0625 73.25C24.6875 77.3125 24.0625 81.625 24.0625 85.75V118.875L2.75 143.188C0.125 146.125 0.5 150.562 3.5 153.125Z" fill="#297FA7"/>
</svg>
