<svg width="177" height="140" viewBox="0 0 177 140" fill="none" xmlns="http://www.w3.org/2000/svg">
<path d="M67.1875 20.875C72.875 20.875 77.4375 16.375 77.4375 10.625C77.4375 4.9375 72.875 0.375 67.1875 0.375C61.5 0.375 56.9375 4.9375 56.9375 10.625C56.9375 16.375 61.5 20.875 67.1875 20.875ZM102.812 39.4375C110.625 39.4375 117.062 33 117.062 25.0625C117.062 17.1875 110.625 10.75 102.812 10.75C94.8125 10.75 88.375 17.1875 88.375 25.0625C88.375 33 94.8125 39.4375 102.812 39.4375ZM7.125 109H42C43.9375 109 44.8125 108.875 46.25 108.562L80.4375 100.25C81.25 100.062 81.875 100.688 81.8125 101.5L79.6875 118.875L67.3125 110.062C64.1875 107.812 59.8125 108.562 57.625 111.625C55.3125 114.812 56 119.188 59.1875 121.438L79.625 135.875C84.5625 139.375 90.8125 138.188 92.0625 133L109.5 62.9375C109.75 62 110.438 61.625 111.375 61.8125L168.438 73.125C173.688 74.1875 176.688 70.25 176.688 66.3125C176.688 63.375 175 60.25 171.188 59.5L114.5 48.125C97.75 44.75 87.1875 43.1875 75.25 43.1875H59.6875V27.375C59.6875 23.4375 56.5625 20.375 52.75 20.375C48.8125 20.375 45.75 23.4375 45.75 27.375V50.125C45.75 53.9375 48.8125 57.0625 52.75 57.0625H79.25C80.375 57.0625 81.125 58 80.8125 59.1875L75.6875 78.875C74.8125 82 72.8125 84.3125 69.75 85.375L41.75 95.125H7.125C3.25 95.125 0.25 98.25 0.25 102.125C0.25 106.062 3.25 109 7.125 109Z" fill="#297FA7"/>
</svg>
