<svg width="238" height="238" viewBox="0 0 238 238" fill="none" xmlns="http://www.w3.org/2000/svg">
<path d="M119 238C184.722 238 238 184.722 238 119C238 53.2781 184.722 0 119 0C53.2781 0 0 53.2781 0 119C0 184.722 53.2781 238 119 238Z" fill="url(#paint0_linear_239_238)"/>
<path d="M119.312 89.4375C127.188 89.4375 133.625 83 133.625 75.0625C133.625 67.1875 127.188 60.75 119.312 60.75C111.375 60.75 104.938 67.1875 104.938 75.0625C104.938 83 111.375 89.4375 119.312 89.4375ZM60 149.062L92 151.75C97 152.188 99.4375 152.75 104.312 154.125L143.25 165.062L178.312 177.938C181.5 179.062 186 177.938 187.25 173.688C188.375 170.125 186.75 166.188 183.188 164.875L148.188 152.125C147.625 151.938 146.5 151.5 146.062 151.312L119.312 141.625C122.875 134.688 127.688 123.75 128.938 111.812C129.062 110.625 129.688 110.125 130.75 110.125H177.5C181.375 110.125 184.438 106.938 184.438 103.188C184.438 99.3125 181.375 96.1875 177.5 96.1875H126.25C117.688 96.1875 116.938 96.1875 107.625 93.625L59.125 80.1875C55.4375 79.125 51.6875 81.375 50.5625 85C49.5625 88.75 51.75 92.5625 55.4375 93.625L100.688 106.125C101.625 106.375 102.188 107 102.062 108.125C100.688 119.25 95.25 130.062 92.3125 135.188H67.5625V109.625C67.5625 105.812 64.25 102.75 60.5625 102.75C56.75 102.75 53.5625 105.812 53.5625 109.625V142.062C53.5625 146.125 55.4375 148.625 60 149.062Z" fill="#F7F7F5"/>
<defs>
<linearGradient id="paint0_linear_239_238" x1="119" y1="0" x2="119" y2="238" gradientUnits="userSpaceOnUse">
<stop stop-color="#297FA7" stop-opacity="0.88"/>
<stop offset="0.479167" stop-color="#297FA7"/>
</linearGradient>
</defs>
</svg>
