<svg width="140" height="132" viewBox="0 0 140 132" fill="none" xmlns="http://www.w3.org/2000/svg">
<path d="M40.625 28.625C48.5 28.625 54.9375 22.25 54.9375 14.25C54.9375 6.375 48.5 0 40.625 0C32.75 0 26.25 6.375 26.25 14.25C26.25 22.25 32.75 28.625 40.625 28.625ZM135.062 117.312L93.125 94.6875L68.875 77.8125C67.1875 76.625 65.6875 75.25 64.375 73.6875C66.6875 72 67.625 69.1875 66.875 66.375L62.125 47.0625C60.4375 40 54 35.1875 46.8125 35.1875H31.625C26.9375 35.1875 23.5625 36.3125 20.375 39.5L3.1875 56.75C0.9375 58.9375 0.5625 62.4375 2.125 65.1875L14.125 86.25V123.438C14.125 127.188 17.3125 130.438 21.125 130.438C24.9375 130.438 28.125 127.188 28.125 123.438V91.875L64.625 94.5625L87 107.25L128.5 129.5C132.562 131.688 136.5 129.625 138 126.75C139.688 123.312 138.438 119.125 135.062 117.312ZM16.875 62.875L27.3125 52.3125L35.625 73.75L29.1875 77.4375H25.25L16.875 62.875Z" fill="#297FA7"/>
</svg>
