<svg width="238" height="238" viewBox="0 0 238 238" fill="none" xmlns="http://www.w3.org/2000/svg">
<path d="M119 238C184.722 238 238 184.722 238 119C238 53.2781 184.722 0 119 0C53.2781 0 0 53.2781 0 119C0 184.722 53.2781 238 119 238Z" fill="url(#paint0_linear_239_231)"/>
<path d="M132.5 77.5625C140.375 77.5625 146.812 71.125 146.812 63.25C146.812 55.3125 140.375 48.9375 132.5 48.9375C124.562 48.9375 118.188 55.3125 118.188 63.25C118.188 71.125 124.562 77.5625 132.5 77.5625ZM110.312 133.25L134.188 146.688L118.875 159.875C115.438 162.812 115.312 166.812 117.562 169.375C119.938 172 123.938 172.312 127.5 169.312L149.5 150.562C152.688 147.812 152.188 142.062 148.375 139.562L124.625 124L129.312 107.75C129.875 105.688 132.188 105.375 133.438 107.188L140.5 117.5C142.25 120.062 145.438 121 148.312 119.688L168.562 110.688C172.312 109 173.75 105.625 172.062 102.188C170.438 98.8125 167.188 97.8125 163.438 99.4375L147.688 106.438L136.75 91.375C130.875 83.3125 123.625 80.125 111.875 80.9375L89.375 82.5625C85.6875 82.8125 83.125 85.3125 82.5625 89.125L79.5625 111.875C79 116.062 81.0625 119 84.875 119.375C88.625 119.75 91.0625 117.562 91.625 113.375L94.3125 95.125L103 94.5C104.812 94.3125 106.5 95.5625 105.875 97.6875L100.688 116C97.5 127.125 104.75 130.125 110.312 133.25ZM67.5 188.312C70.125 190.562 74 190.625 77.25 187.438L97.9375 167C99.75 165.188 100.188 164.75 101.188 162L109.562 140.438L107.062 139C102.188 136.312 98.6875 133.625 96.375 130.75L89 156.812L67.5625 178.062C64.1875 181.438 64.625 185.812 67.5 188.312Z" fill="#F7F7F5"/>
<defs>
<linearGradient id="paint0_linear_239_231" x1="119" y1="0" x2="119" y2="238" gradientUnits="userSpaceOnUse">
<stop stop-color="#297FA7" stop-opacity="0.88"/>
<stop offset="0.479167" stop-color="#297FA7"/>
</linearGradient>
</defs>
</svg>
