<svg width="238" height="238" viewBox="0 0 238 238" fill="none" xmlns="http://www.w3.org/2000/svg">
<path d="M119 238C184.722 238 238 184.722 238 119C238 53.2781 184.722 0 119 0C53.2781 0 0 53.2781 0 119C0 184.722 53.2781 238 119 238Z" fill="url(#paint0_linear_239_242)"/>
<path d="M49.9375 113.875C57.875 113.875 64.25 107.5 64.25 99.5625C64.25 91.6875 57.875 85.25 49.9375 85.25C42.0625 85.25 35.625 91.6875 35.625 99.5625C35.625 107.5 42.0625 113.875 49.9375 113.875ZM92 152.75H110.188C125.625 152.75 130.062 143.812 128.75 133.625L124.625 100.812H156.75C160.688 100.812 163.75 97.625 163.75 93.75C163.75 89.8125 160.688 86.75 156.75 86.75H115.938C112 86.75 108.875 89.5625 108.875 94.25V127.5H98.5C92.75 127.5 88.0625 125.562 85.375 121.25C84.8125 120.312 84.75 119.125 85.875 117.812L102.25 98.375C106.312 93.625 103.062 86.75 97.125 86.75H74.4375C70.5625 86.75 67.375 89.8125 67.375 93.75C67.375 97.6875 70.4375 100.812 74.4375 100.812H82.4375L73.5625 111.312C66.75 119.375 60.75 124.938 50.6875 129.438L41.625 133.438L44.3125 124C45.4375 120.125 42.875 116.312 39.25 115.438C35.4375 114.5 31.625 116.812 30.6875 120.5L24.625 143.938C22.875 150.875 29 154.438 35 151.812L55.5625 142.75C57.5625 141.875 58.4375 142 59.9375 143.125C66.6875 148.875 77.375 152.75 92 152.75ZM162.312 137.938H209.562C213.5 137.938 216.625 134.812 216.625 130.875C216.625 126.938 213.5 123.812 209.562 123.812H161.625C161.125 123.812 160.5 123.812 159.75 123.875L134.438 126L135.375 132.75C135.875 136.562 135.75 140.188 134.938 143.375L162.312 137.938Z" fill="#F7F7F5"/>
<defs>
<linearGradient id="paint0_linear_239_242" x1="119" y1="0" x2="119" y2="238" gradientUnits="userSpaceOnUse">
<stop stop-color="#297FA7" stop-opacity="0.88"/>
<stop offset="0.479167" stop-color="#297FA7"/>
</linearGradient>
</defs>
</svg>
