<?xml version="1.0" encoding="UTF-8"?>
<svg id="Camada_2" data-name="Camada 2" xmlns="http://www.w3.org/2000/svg" viewBox="0 0 112.08 112.08">
  <defs>
    <style>
      .cls-1 {
        fill: #eaeaea;
      }

      .cls-2 {
        fill: #297fa7;
      }

      .cls-3 {
        fill: #afcad5;
        stroke: #afcad5;
        stroke-miterlimit: 10;
        stroke-width: 7px;
      }
    </style>
  </defs>
  <g id="Camada_2-2" data-name="Camada 2">
    <rect class="cls-2" width="112.08" height="112.08" rx="19.64" ry="19.64"/>
    <path class="cls-3" d="M16.42,63.41h27.04c4.03,0,6.76-2.73,6.76-6.76s-2.73-6.76-6.76-6.76h-14.3c-8.06,0-13.52-5.72-13.52-13.52,0-7.15,5.46-13.52,13.52-13.52h24.57v6.76H29.94c-4.03,0-6.76,2.73-6.76,6.76s2.73,6.76,6.76,6.76h14.3c8.06,0,13.52,5.72,13.52,13.52,0,7.02-5.46,13.52-13.52,13.52H16.42v-6.76Z"/>
    <path class="cls-3" d="M53.31,51.69h27.82c8.19,0,13.65,6.11,13.65,13.52s-5.46,13.52-13.65,13.52h-20.15v20.28h-7.67V51.69Zm27.04,20.28c4.03,0,6.76-2.73,6.76-6.76s-2.73-6.76-6.76-6.76h-19.37v13.52h19.37Z"/>
    <path class="cls-1" d="M57.82,52.28c.26-.66,.73-1.14,1.39-1.43l9.52-4.11,2-5.42c.62,.5,1.35,.89,2.17,1.16,.83,.27,1.76,.37,2.79,.31l.83-.04-3.49,7.04c-.26,.54-.69,.95-1.27,1.21l-10.51,4.56c-.28,.12-.63,.18-1.05,.18s-.85-.11-1.27-.33c-.42-.22-.77-.6-1.03-1.16-.32-.66-.34-1.32-.08-1.98Zm4.68-19.68c-.23-.65-.18-1.29,.14-1.92l4.25-8.45c.21-.42,.53-.76,.94-1.01,.42-.25,.86-.38,1.32-.38h13.21c1.38,0,2.55,.22,3.53,.65s1.89,1.08,2.74,1.92l1.96,1.94,2.64-5.24c.32-.63,.81-1.06,1.48-1.28,.67-.22,1.31-.19,1.93,.09,.67,.32,1.11,.81,1.3,1.49,.19,.67,.14,1.32-.17,1.94l-4.19,8.45c-.4,.81-1.03,1.26-1.89,1.37-.87,.11-1.6-.13-2.19-.69l-4.66-4.46c-.08-.09-.17-.13-.28-.12-.11,.01-.19,.08-.24,.2l-3.71,7.4h8.61c.66,0,1.2,.19,1.62,.58,.42,.38,.69,.85,.81,1.41,.12,.55,.07,1.08-.17,1.59l-5.28,11.6c-.32,.7-.78,1.16-1.38,1.38-.6,.22-1.25,.2-1.93-.05-.65-.26-1.09-.73-1.34-1.41-.25-.67-.22-1.34,.07-1.98l3.49-7.78-9.56,.62c-1.02,.05-1.89-.12-2.63-.52-.73-.4-1.3-.94-1.7-1.63-.4-.69-.61-1.44-.64-2.25-.03-.81,.14-1.6,.53-2.37l3.75-7.38c.05-.12,.06-.22,0-.31-.05-.09-.14-.13-.29-.13h-3.89l-3.51,7.04c-.28,.57-.72,.98-1.33,1.24s-1.28,.22-2-.11c-.67-.32-1.12-.8-1.35-1.45Zm19.04-14.33c-.71-.43-1.29-1-1.72-1.72-.43-.71-.64-1.51-.64-2.38s.21-1.67,.64-2.38c.43-.71,1-1.29,1.72-1.72s1.51-.64,2.38-.64,1.67,.21,2.38,.64c.71,.43,1.29,1,1.72,1.72,.43,.71,.64,1.51,.64,2.38s-.22,1.67-.64,2.38c-.43,.71-1,1.29-1.72,1.72-.71,.43-1.51,.65-2.38,.65s-1.67-.21-2.38-.65Z"/>
  </g>
</svg>