<svg width="130" height="148" viewBox="0 0 130 148" fill="none" xmlns="http://www.w3.org/2000/svg">
<path d="M84.625 28.6875C92.5 28.6875 98.9375 22.25 98.9375 14.3125C98.9375 6.375 92.5 0 84.625 0C76.6875 0 70.25 6.375 70.25 14.3125C70.25 22.25 76.6875 28.6875 84.625 28.6875ZM20.625 75.625C24.8125 77.5 28.5 75.6875 30.125 72.4375L41.6875 49.375H55.125C56.4375 49.375 57.1875 50.5625 56.5625 51.6875L44.4375 75.75C39.75 85 45.5 96.75 57.75 96L89.875 94L78.0625 120.312C76.4375 124 78 128.438 81.625 129.875C85.6875 131.375 89.25 130.125 91.0625 126.188L108 89C109.938 84.6875 107.188 78.875 101.625 78.875H72.5L85.3125 53.3125C85.75 52.3125 86.9375 52.0625 87.75 52.875L103.125 67.5625C106.438 70.8125 112.375 70.25 114.688 65.6875L128.125 38.625C129.875 35.0625 128.812 30.75 124.938 28.9375C121.375 27.25 117.062 28.6875 115.25 32.25L106.188 50.3125L99 43.0625C93.75 37.8125 88.125 35.0625 79.5625 35.0625H37.25C34.5625 35.0625 32.0625 36.6875 30.875 39L17.3125 66.0625C15.5 69.625 16.875 73.8125 20.625 75.625ZM2.125 140.812C4.375 145.5 9.3125 145.562 11.625 144.562L45.25 129.938C46.8125 129.25 48.0625 128.062 48.8125 126.5L60.75 102.438L58.125 102.625C52.375 103 47.5 101.312 43.875 98.5L36.6875 117.875L5.8125 131.125C2.125 132.75 0.25 137 2.125 140.812ZM114.625 147.375C122.688 147.375 129.062 141.062 129.062 133C129.062 125.062 122.688 118.625 114.625 118.625C106.688 118.625 100.312 125.062 100.312 133C100.312 141.062 106.688 147.375 114.625 147.375Z" fill="#297FA7"/>
</svg>
