<svg width="238" height="238" viewBox="0 0 238 238" fill="none" xmlns="http://www.w3.org/2000/svg">
<path d="M233 119C233 181.96 181.96 233 119 233C56.0395 233 5 181.96 5 119C5 56.0395 56.0395 5 119 5C181.96 5 233 56.0395 233 119Z" stroke="#297FA7" stroke-width="10"/>
<path d="M94.1875 67.875C99.875 67.875 104.438 63.375 104.438 57.625C104.438 51.9375 99.875 47.375 94.1875 47.375C88.5 47.375 83.9375 51.9375 83.9375 57.625C83.9375 63.375 88.5 67.875 94.1875 67.875ZM129.812 86.4375C137.625 86.4375 144.062 80 144.062 72.0625C144.062 64.1875 137.625 57.75 129.812 57.75C121.812 57.75 115.375 64.1875 115.375 72.0625C115.375 80 121.812 86.4375 129.812 86.4375ZM34.125 156H69C70.9375 156 71.8125 155.875 73.25 155.562L107.438 147.25C108.25 147.062 108.875 147.688 108.812 148.5L106.688 165.875L94.3125 157.062C91.1875 154.812 86.8125 155.562 84.625 158.625C82.3125 161.812 83 166.188 86.1875 168.438L106.625 182.875C111.562 186.375 117.812 185.188 119.062 180L136.5 109.938C136.75 109 137.438 108.625 138.375 108.812L195.438 120.125C200.688 121.188 203.688 117.25 203.688 113.312C203.688 110.375 202 107.25 198.188 106.5L141.5 95.125C124.75 91.75 114.188 90.1875 102.25 90.1875H86.6875V74.375C86.6875 70.4375 83.5625 67.375 79.75 67.375C75.8125 67.375 72.75 70.4375 72.75 74.375V97.125C72.75 100.938 75.8125 104.062 79.75 104.062H106.25C107.375 104.062 108.125 105 107.812 106.188L102.688 125.875C101.812 129 99.8125 131.312 96.75 132.375L68.75 142.125H34.125C30.25 142.125 27.25 145.25 27.25 149.125C27.25 153.062 30.25 156 34.125 156Z" fill="#297FA7"/>
</svg>
