<svg width="238" height="238" viewBox="0 0 238 238" fill="none" xmlns="http://www.w3.org/2000/svg">
<path d="M119 238C184.722 238 238 184.722 238 119C238 53.2781 184.722 0 119 0C53.2781 0 0 53.2781 0 119C0 184.722 53.2781 238 119 238Z" fill="url(#paint0_linear_239_213)"/>
<path d="M118.938 130.688C129.438 130.688 133.375 123.125 144.562 121L99.5625 74.125C96.5625 71.0625 92.125 70.625 88.4375 73.25L63.5 91C58.9375 94.1875 59.375 99.0625 62 101.938C64.25 104.375 68.1875 105.375 72 102.688L91.9375 88.625L102.875 99.875C104.188 101.188 104.375 103 102.562 104.25L76.1875 121.5C79.375 120.812 83.125 120.375 88.0625 120.5C103.25 120.875 106.875 130.688 118.938 130.688ZM145.188 104.188C153.125 104.188 159.562 97.75 159.562 89.8125C159.562 81.9375 153.125 75.5 145.188 75.5C137.312 75.5 130.875 81.9375 130.875 89.8125C130.875 97.75 137.312 104.188 145.188 104.188ZM47.3125 148.5H54.0625C71.5 148.5 75.1875 138.125 86.5 138.125C97.1875 138.125 101.562 148.5 118.938 148.5C136.375 148.5 140.75 138.125 151.375 138.125C162.75 138.125 166.438 148.5 183.812 148.5H190.562C192.875 148.5 194.75 146.688 194.75 144.375C194.75 142.062 192.875 140.25 190.562 140.25H183.812C172.062 140.25 168.125 129.812 151.375 129.812C135.375 129.812 130.75 140.25 118.938 140.25C107.188 140.25 102.5 129.812 86.5 129.812C69.8125 129.812 65.875 140.25 54.0625 140.25H47.3125C45 140.25 43.1875 142.062 43.1875 144.375C43.1875 146.688 45 148.5 47.3125 148.5ZM83.875 156.688C86.0625 156.688 87.875 154.938 87.875 152.75C87.875 150.5 86.0625 148.75 83.875 148.75C81.625 148.75 79.875 150.5 79.875 152.75C79.875 154.938 81.625 156.688 83.875 156.688ZM154.188 156.688C156.375 156.688 158.125 154.938 158.125 152.75C158.125 150.5 156.375 148.75 154.188 148.75C151.938 148.75 150.188 150.5 150.188 152.75C150.188 154.938 151.938 156.688 154.188 156.688ZM71.875 159.812C74.0625 159.812 75.875 158.062 75.875 155.812C75.875 153.625 74.0625 151.812 71.875 151.812C69.625 151.812 67.875 153.625 67.875 155.812C67.875 158.062 69.625 159.812 71.875 159.812ZM95.8125 159.812C98.0625 159.812 99.8125 158.062 99.8125 155.812C99.8125 153.625 98.0625 151.812 95.8125 151.812C93.625 151.812 91.875 153.625 91.875 155.812C91.875 158.062 93.625 159.812 95.8125 159.812ZM142.188 159.812C144.438 159.812 146.188 158.062 146.188 155.812C146.188 153.625 144.438 151.812 142.188 151.812C140 151.812 138.188 153.625 138.188 155.812C138.188 158.062 140 159.812 142.188 159.812ZM166.188 159.812C168.375 159.812 170.125 158.062 170.125 155.812C170.125 153.625 168.375 151.812 166.188 151.812C163.938 151.812 162.188 153.625 162.188 155.812C162.188 158.062 163.938 159.812 166.188 159.812ZM60.6875 165.062C62.9375 165.062 64.6875 163.312 64.6875 161.062C64.6875 158.875 62.9375 157.125 60.6875 157.125C58.5 157.125 56.6875 158.875 56.6875 161.062C56.6875 163.312 58.5 165.062 60.6875 165.062ZM107.062 165.062C109.312 165.062 111.062 163.312 111.062 161.062C111.062 158.875 109.312 157.125 107.062 157.125C104.875 157.125 103.125 158.875 103.125 161.062C103.125 163.312 104.875 165.062 107.062 165.062ZM130.938 165.062C133.188 165.062 134.938 163.312 134.938 161.062C134.938 158.875 133.188 157.125 130.938 157.125C128.75 157.125 126.938 158.875 126.938 161.062C126.938 163.312 128.75 165.062 130.938 165.062ZM177.312 165.062C179.562 165.062 181.312 163.312 181.312 161.062C181.312 158.875 179.562 157.125 177.312 157.125C175.125 157.125 173.375 158.875 173.375 161.062C173.375 163.312 175.125 165.062 177.312 165.062ZM48.6875 167.188C50.875 167.188 52.6875 165.438 52.6875 163.25C52.6875 161 50.875 159.25 48.6875 159.25C46.4375 159.25 44.6875 161 44.6875 163.25C44.6875 165.438 46.4375 167.188 48.6875 167.188ZM119 167.188C121.25 167.188 123 165.438 123 163.25C123 161 121.25 159.25 119 159.25C116.812 159.25 115 161 115 163.25C115 165.438 116.812 167.188 119 167.188ZM189.312 167.188C191.562 167.188 193.312 165.438 193.312 163.25C193.312 161 191.562 159.25 189.312 159.25C187.125 159.25 185.312 161 185.312 163.25C185.312 165.438 187.125 167.188 189.312 167.188Z" fill="#F7F7F5"/>
<defs>
<linearGradient id="paint0_linear_239_213" x1="119" y1="0" x2="119" y2="238" gradientUnits="userSpaceOnUse">
<stop stop-color="#297FA7" stop-opacity="0.88"/>
<stop offset="0.479167" stop-color="#297FA7"/>
</linearGradient>
</defs>
</svg>
