<svg width="238" height="238" viewBox="0 0 238 238" fill="none" xmlns="http://www.w3.org/2000/svg">
<path d="M233 119C233 181.96 181.96 233 119 233C56.0395 233 5 181.96 5 119C5 56.0395 56.0395 5 119 5C181.96 5 233 56.0395 233 119Z" stroke="#297FA7" stroke-width="10"/>
<path d="M114.188 73.9375C122.062 73.9375 128.438 67.5625 128.438 59.5625C128.438 51.75 122.062 45.3125 114.188 45.3125C106.188 45.3125 99.8125 51.75 99.8125 59.5625C99.8125 67.5625 106.188 73.9375 114.188 73.9375ZM55.125 191.438C57.8125 193.938 62.0625 194.438 65.0625 191.438L92.9375 163.625C94.8125 161.812 95.125 160.312 94.9375 157.75L93.4375 141.188C93.3125 139.938 94.5 139.375 95.4375 140.188L114.188 156.312L124.562 188.5C125.812 192.562 129.938 194.125 133.375 193.125C137.312 191.875 139.188 187.938 138 184.25L127.188 150.188C126.812 149.188 126.25 148.062 125.375 147.25L104.188 126.25L117.75 99C118.25 98.0625 119.25 97.875 120.062 98.625L135.5 114.188C136.25 114.938 137.375 115.562 138.375 115.875L169.375 125.188C172.125 126 176.688 124.938 178.188 120.312C179.25 116.625 177.125 112.688 173.375 111.562L144.188 102.938L127.438 86.0625C123.562 82.1875 119.062 80.4375 113.688 80.4375H69.375C66.6875 80.4375 64.3125 82 63.0625 84.375L50.6875 109.062C49 112.5 50.1875 116.75 53.875 118.438C57.4375 120.188 61.5 118.875 63.3125 115.312L73.625 94.5625H86.375C87.625 94.5625 88.25 95.6875 87.6875 96.75L78.125 116C74.6875 122.938 73.75 131.062 75.625 138.625L80.125 156.375L55.0625 181.312C52.3125 184.062 52.375 188.688 55.125 191.438ZM171.438 163.25C180.062 163.25 187 156.312 187 147.688C187 139.062 180.062 132.125 171.438 132.125C162.812 132.125 155.875 139.062 155.875 147.688C155.875 156.312 162.812 163.25 171.438 163.25Z" fill="#297FA7"/>
</svg>
