<?xml version="1.0" encoding="UTF-8"?>
<svg id="Camada_2" data-name="Camada 2" xmlns="http://www.w3.org/2000/svg" viewBox="0 0 239.83 45.7">
  <defs>
    <style>
      .cls-1 {
        fill: #297fa7;
        stroke: #237ea9;
      }

      .cls-1, .cls-2 {
        stroke-miterlimit: 10;
        stroke-width: 2px;
      }

      .cls-2 {
        fill: #ccc;
        stroke: #ccc;
      }
    </style>
  </defs>
  <g id="Camada_2-2" data-name="Camada 2">
    <g>
      <path class="cls-2" d="M75.06,22.85c0-12.04,10.05-21.85,22.08-21.85,12.97,0,21.97,8.88,21.97,21.85,0,11.92-10.05,21.85-21.97,21.85-12.97,0-22.08-8.88-22.08-21.85Zm37.04,0c0-8.65-6.31-15.66-14.96-15.66s-15.07,7.01-15.07,15.66,6.43,15.66,15.07,15.66,14.96-7.01,14.96-15.66Z"/>
      <path class="cls-2" d="M123.12,1.58h25.01c7.36,0,12.27,5.49,12.27,12.15,0,5.14-3.04,9.7-7.83,11.45l7.83,18.93h-7.13l-7.6-18.23h-15.66v18.23h-6.89V1.58Zm24.31,18.23c3.62,0,6.08-2.45,6.08-6.08s-2.45-6.08-6.08-6.08h-17.41v12.15h17.41Z"/>
      <path class="cls-2" d="M177.33,7.66h-20.22l-15.36-6.08h82.07l-18.74,6.08h-20.98V44.12h-6.78V7.66Z"/>
      <path class="cls-2" d="M201.67,38.04h24.31c3.62,0,6.08-2.45,6.08-6.08s-2.45-6.08-6.08-6.08h-12.85c-7.24,0-12.15-5.14-12.15-12.15,0-6.43,4.91-12.15,12.15-12.15h22.09V7.66h-21.38c-3.62,0-6.08,2.45-6.08,6.08s2.45,6.08,6.08,6.08h12.85c7.24,0,12.15,5.14,12.15,12.15,0,6.31-4.91,12.15-12.15,12.15h-25.01v-6.08Z"/>
      <path class="cls-1" d="M1.7,38.63H26.01c3.62,0,6.08-2.45,6.08-6.08s-2.45-6.08-6.08-6.08H13.15c-7.24,0-12.15-5.14-12.15-12.15C1,7.89,5.91,2.17,13.15,2.17h22.08v6.08H13.85c-3.62,0-6.08,2.45-6.08,6.08s2.45,6.08,6.08,6.08h12.85c7.25,0,12.15,5.14,12.15,12.15,0,6.31-4.91,12.15-12.15,12.15H1.7v-6.08Z"/>
      <path class="cls-1" d="M42.82,2.17h25.01c7.36,0,12.27,5.49,12.27,12.15s-4.91,12.15-12.27,12.15h-18.11v18.23h-6.89V2.17Zm24.31,18.23c3.62,0,6.08-2.45,6.08-6.08s-2.45-6.08-6.08-6.08h-17.41v12.15h17.41Z"/>
    </g>
  </g>
</svg>