<svg width="109" height="164" viewBox="0 0 109 164" fill="none" xmlns="http://www.w3.org/2000/svg">
<path d="M88.5 25.9375C95.5625 25.9375 101.312 20.25 101.312 13.1875C101.312 6.125 95.5625 0.375 88.5 0.375C81.375 0.375 75.6875 6.125 75.6875 13.1875C75.6875 20.25 81.375 25.9375 88.5 25.9375ZM37.5 52.4375C45.375 52.4375 51.875 46 51.875 38C51.875 30.1875 45.375 23.75 37.5 23.75C29.625 23.75 23.1875 30.1875 23.1875 38C23.1875 46 29.625 52.4375 37.5 52.4375ZM0.25 83.75C0.25 89.1875 5.8125 91.625 10.0625 89.5L32.0625 78.4375C33 77.9375 34.0625 78.4375 34.375 79.5L40.6875 105.062L30.6875 130.062H7C3.3125 130.062 0.25 133.062 0.25 136.812C0.25 140.5 3.3125 143.5 7 143.5H34.875C37.9375 143.5 39.875 142.25 41.3125 139.562L54.4375 115.375L61.5625 134.062L37.75 150C34.6875 152.062 33.8125 156.375 35.875 159.312C37.875 162.312 41.8125 163.375 45.125 161.125L73.625 142.188C75.9375 140.688 77.0625 138.438 76.0625 134.375L59.1875 67.25C58.875 65.9375 59.1875 64.875 60.5625 64.25L104.062 42.5C107.375 40.875 108.75 36.8125 107.062 33.4375C105.375 30.125 101.312 28.8125 98 30.5L13.75 72.625V52.125C13.75 48.4375 10.75 45.4375 7 45.4375C3.3125 45.4375 0.25 48.4375 0.25 52.125V83.75Z" fill="#297FA7"/>
</svg>
