<svg width="60" height="75" viewBox="0 0 60 75" fill="none" xmlns="http://www.w3.org/2000/svg">
<path fill-rule="evenodd" clip-rule="evenodd" d="M37.3031 59.1048C35.9876 59.4339 34.7203 59.9598 33.6355 60.7734C32.56 61.58 31.687 62.626 31.0857 63.8286L30.8944 64.2111C30.5259 64.9482 29.4741 64.9482 29.1056 64.2111L28.9143 63.8286C28.313 62.6261 27.44 61.58 26.3645 60.7734C25.2797 59.9598 24.0124 59.4339 22.6969 59.1048C9.6579 55.8435 0 44.0496 0 30C0 13.4315 13.4315 0 30 0C46.5685 0 60 13.4315 60 30C60 44.0496 50.3421 55.8435 37.3031 59.1048ZM30 75C31.6569 75 33 73.6569 33 72C33 70.3431 31.6569 69 30 69C28.3431 69 27 70.3431 27 72C27 73.6569 28.3431 75 30 75Z" fill="#297FA7"/>
<g clip-path="url(#clip0_325_999)">
<path d="M13 38.1313C13 40.7146 14.3212 41.9999 16.9512 41.9999L29.0815 41.9999L29.0815 36.3467C26.074 35.9848 24.0355 33.701 24.0355 30.5062C24.0355 27.2865 26.074 25.0027 29.0815 24.6657L29.0815 19.0249L16.9512 19.0249C14.3212 19.0249 13 20.3103 13 22.8936L13 24.4536L17.3916 24.4536C19.0526 24.4536 20.0215 25.4145 20.0215 27.0493L20.0215 33.9631C20.0215 35.5979 19.0526 36.5588 17.3916 36.5588L13 36.5588L13 38.1313ZM13 34.7992L17.3664 34.7992C17.9201 34.7992 18.2472 34.4748 18.2472 33.9131L18.2472 27.0993C18.2472 26.5377 17.9201 26.2132 17.3664 26.2132L13 26.2132L13 34.7992ZM25.7091 30.4937C25.7091 32.6652 27.0806 34.2876 29.0815 34.637L29.0815 26.3879C27.0806 26.7374 25.7091 28.3348 25.7091 30.4937ZM30.8556 41.9999L43.0615 41.9999C45.6914 41.9999 47 40.7021 47 38.1313L47 36.5588L42.6211 36.5588C40.9475 36.5588 39.9912 35.5979 39.9912 33.9631L39.9912 27.0493C39.9912 25.4145 40.9475 24.4536 42.6211 24.4536L47 24.4536L47 22.8936C47 20.3228 45.6914 19.0249 43.0615 19.0249L30.8556 19.0249L30.8556 24.6907C33.8504 25.0776 35.8764 27.3738 35.9015 30.5062C35.9393 33.701 33.9008 35.9723 30.8556 36.3467L30.8556 41.9999ZM30.8556 34.637C32.8565 34.2876 34.2154 32.6652 34.228 30.4937C34.2406 28.3348 32.869 26.7249 30.8556 26.3879L30.8556 34.637ZM41.7654 33.9131C41.7654 34.4748 42.0925 34.7992 42.6336 34.7992L47 34.7992L47 26.2132L42.6336 26.2132C42.0925 26.2132 41.7654 26.5377 41.7654 27.0993L41.7654 33.9131Z" fill="#EAEAEA"/>
</g>
<defs>
<clipPath id="clip0_325_999">
<rect width="34" height="23" fill="white" transform="translate(13 19)"/>
</clipPath>
</defs>
</svg>
