<svg width="238" height="238" viewBox="0 0 238 238" fill="none" xmlns="http://www.w3.org/2000/svg">
<path d="M119 238C184.722 238 238 184.722 238 119C238 53.2781 184.722 0 119 0C53.2781 0 0 53.2781 0 119C0 184.722 53.2781 238 119 238Z" fill="url(#paint0_linear_230_215)"/>
<path d="M61.3125 43.9375C51.5 43.9375 43.8125 51.75 43.8125 61.5625C43.8125 69.1875 49.3125 77.3125 57 81.5625V102.812C57 105 57.75 107 59.5 108.438L77.4375 122.688C79.75 124.5 82.375 124.375 85.3125 123.188L105.25 114.812C107.562 113.875 108.875 115.125 109.125 116.812L118.938 170.875L91.9375 181.625C88.4375 183.062 86.6875 187.125 88 190.688C89.625 194.5 93.5 195.875 97.0625 194.438L129.312 181.562C132.312 180.375 133.938 177.375 133.688 174.312L131.875 149.188C131.688 146.812 134.25 145.438 136.188 146.688L155.375 159.562V188.125C155.375 191.875 158.438 195.062 162.25 195.062C166.062 195.062 169.188 191.875 169.188 188.125V155.875C169.188 153.438 167.875 151.562 166.125 150.062L141.188 129.562L136.312 102.875C135.812 100.188 136.188 97.6875 137.5 95.0625L158.562 53C160.25 49.5625 158.812 45.375 155.375 43.6875C152 42 147.812 43.375 146.125 46.6875L125.438 88.1875C124 91.0625 122 92.875 119 94.125L82.6875 109.188L68.25 97.5625C67.375 96.875 66.4375 96.625 65.625 96.5625V81.625C73.3125 77.3125 78.75 69.1875 78.75 61.5625C78.75 51.75 71.0625 43.9375 61.3125 43.9375ZM61.3125 52.625C66.3125 52.625 70.125 56.5 70.125 61.8125C70.125 67 66.4375 72.375 61.3125 74.1875C56.1875 72.375 52.5 67 52.5 61.8125C52.5 56.5 56.25 52.625 61.3125 52.625ZM105.562 91.1875C113.438 91.1875 119.875 84.75 119.875 76.875C119.875 68.9375 113.438 62.5 105.562 62.5C97.625 62.5 91.1875 68.9375 91.1875 76.875C91.1875 84.75 97.625 91.1875 105.562 91.1875Z" fill="#F7F7F5"/>
<defs>
<linearGradient id="paint0_linear_230_215" x1="119" y1="0" x2="119" y2="238" gradientUnits="userSpaceOnUse">
<stop stop-color="#297FA7" stop-opacity="0.88"/>
<stop offset="0.479167" stop-color="#297FA7"/>
</linearGradient>
</defs>
</svg>
