<svg width="238" height="238" viewBox="0 0 238 238" fill="none" xmlns="http://www.w3.org/2000/svg">
<path d="M233 119C233 181.96 181.96 233 119 233C56.0395 233 5 181.96 5 119C5 56.0395 56.0395 5 119 5C181.96 5 233 56.0395 233 119Z" stroke="#297FA7" stroke-width="10"/>
<path d="M78.6875 189.375C82.5 190.062 86.0625 187.562 86.8125 183.562L92.8125 151.312L117.312 137.938C118.125 137.438 118.875 137.625 119.188 138.438L131.812 168.75C132.5 170.5 133.875 171.688 135.312 172.5L164.125 188.5C168.062 190.688 172.125 188.938 173.75 185.875C175.688 182.5 174.375 178.062 171 176.188L144.375 161.375L126.312 89C125.125 84.4375 121.188 81.1875 116.312 81.1875H78.125L96.375 42.4375C99 36.875 95 33.0625 90.875 33.0625C88.5625 33.0625 86.1875 34.3125 85.0625 37.125L63.8125 92.25C62.6875 95.25 63.5625 98.0625 65.4375 99.9375L81.4375 116C84.125 118.688 88.6875 118.625 91.3125 116L98.4375 108.938C99.25 108.125 100.375 108.188 100.625 109.312L104.375 124.312L82.125 141C80.4375 142.25 79.6875 144.312 79.3125 146.188L72.9375 181.125C72.3125 184.875 74.875 188.625 78.6875 189.375ZM113.938 74.6875C121.812 74.6875 128.188 68.25 128.188 60.3125C128.188 52.4375 121.812 46.0625 113.938 46.0625C105.938 46.0625 99.5625 52.4375 99.5625 60.3125C99.5625 68.25 105.938 74.6875 113.938 74.6875ZM92.875 94.875L86.4375 101.312L79.9375 94.875H92.875Z" fill="#297FA7"/>
</svg>
