<svg width="114" height="158" viewBox="0 0 114 158" fill="none" xmlns="http://www.w3.org/2000/svg">
<path d="M16.6875 156.375C20.5 157.062 24.0625 154.562 24.8125 150.562L30.8125 118.312L55.3125 104.938C56.125 104.438 56.875 104.625 57.1875 105.438L69.8125 135.75C70.5 137.5 71.875 138.688 73.3125 139.5L102.125 155.5C106.062 157.688 110.125 155.938 111.75 152.875C113.688 149.5 112.375 145.062 109 143.188L82.375 128.375L64.3125 56C63.125 51.4375 59.1875 48.1875 54.3125 48.1875H16.125L34.375 9.4375C37 3.875 33 0.0625 28.875 0.0625C26.5625 0.0625 24.1875 1.3125 23.0625 4.125L1.8125 59.25C0.6875 62.25 1.5625 65.0625 3.4375 66.9375L19.4375 83C22.125 85.6875 26.6875 85.625 29.3125 83L36.4375 75.9375C37.25 75.125 38.375 75.1875 38.625 76.3125L42.375 91.3125L20.125 108C18.4375 109.25 17.6875 111.312 17.3125 113.188L10.9375 148.125C10.3125 151.875 12.875 155.625 16.6875 156.375ZM51.9375 41.6875C59.8125 41.6875 66.1875 35.25 66.1875 27.3125C66.1875 19.4375 59.8125 13.0625 51.9375 13.0625C43.9375 13.0625 37.5625 19.4375 37.5625 27.3125C37.5625 35.25 43.9375 41.6875 51.9375 41.6875ZM30.875 61.875L24.4375 68.3125L17.9375 61.875H30.875Z" fill="#297FA7"/>
</svg>
