<svg width="238" height="238" viewBox="0 0 238 238" fill="none" xmlns="http://www.w3.org/2000/svg">
<path d="M119 238C184.722 238 238 184.722 238 119C238 53.2781 184.722 0 119 0C53.2781 0 0 53.2781 0 119C0 184.722 53.2781 238 119 238Z" fill="url(#paint0_linear_239_236)"/>
<path d="M153.5 60.9375C160.562 60.9375 166.312 55.25 166.312 48.1875C166.312 41.125 160.562 35.375 153.5 35.375C146.375 35.375 140.688 41.125 140.688 48.1875C140.688 55.25 146.375 60.9375 153.5 60.9375ZM102.5 87.4375C110.375 87.4375 116.875 81 116.875 73C116.875 65.1875 110.375 58.75 102.5 58.75C94.625 58.75 88.1875 65.1875 88.1875 73C88.1875 81 94.625 87.4375 102.5 87.4375ZM65.25 118.75C65.25 124.188 70.8125 126.625 75.0625 124.5L97.0625 113.438C98 112.938 99.0625 113.438 99.375 114.5L105.688 140.062L95.6875 165.062H72C68.3125 165.062 65.25 168.062 65.25 171.812C65.25 175.5 68.3125 178.5 72 178.5H99.875C102.938 178.5 104.875 177.25 106.312 174.562L119.438 150.375L126.562 169.062L102.75 185C99.6875 187.062 98.8125 191.375 100.875 194.312C102.875 197.312 106.812 198.375 110.125 196.125L138.625 177.188C140.938 175.688 142.062 173.438 141.062 169.375L124.188 102.25C123.875 100.938 124.188 99.875 125.562 99.25L169.062 77.5C172.375 75.875 173.75 71.8125 172.062 68.4375C170.375 65.125 166.312 63.8125 163 65.5L78.75 107.625V87.125C78.75 83.4375 75.75 80.4375 72 80.4375C68.3125 80.4375 65.25 83.4375 65.25 87.125V118.75Z" fill="#F7F7F5"/>
<defs>
<linearGradient id="paint0_linear_239_236" x1="119" y1="0" x2="119" y2="238" gradientUnits="userSpaceOnUse">
<stop stop-color="#297FA7" stop-opacity="0.88"/>
<stop offset="0.479167" stop-color="#297FA7"/>
</linearGradient>
</defs>
</svg>
