<svg width="110" height="143" viewBox="0 0 110 143" fill="none" xmlns="http://www.w3.org/2000/svg">
<path d="M68.5 29.5625C76.375 29.5625 82.8125 23.125 82.8125 15.25C82.8125 7.3125 76.375 0.9375 68.5 0.9375C60.5625 0.9375 54.1875 7.3125 54.1875 15.25C54.1875 23.125 60.5625 29.5625 68.5 29.5625ZM46.3125 85.25L70.1875 98.6875L54.875 111.875C51.4375 114.812 51.3125 118.812 53.5625 121.375C55.9375 124 59.9375 124.312 63.5 121.312L85.5 102.562C88.6875 99.8125 88.1875 94.0625 84.375 91.5625L60.625 76L65.3125 59.75C65.875 57.6875 68.1875 57.375 69.4375 59.1875L76.5 69.5C78.25 72.0625 81.4375 73 84.3125 71.6875L104.562 62.6875C108.312 61 109.75 57.625 108.062 54.1875C106.438 50.8125 103.188 49.8125 99.4375 51.4375L83.6875 58.4375L72.75 43.375C66.875 35.3125 59.625 32.125 47.875 32.9375L25.375 34.5625C21.6875 34.8125 19.125 37.3125 18.5625 41.125L15.5625 63.875C15 68.0625 17.0625 71 20.875 71.375C24.625 71.75 27.0625 69.5625 27.625 65.375L30.3125 47.125L39 46.5C40.8125 46.3125 42.5 47.5625 41.875 49.6875L36.6875 68C33.5 79.125 40.75 82.125 46.3125 85.25ZM3.5 140.312C6.125 142.562 10 142.625 13.25 139.438L33.9375 119C35.75 117.188 36.1875 116.75 37.1875 114L45.5625 92.4375L43.0625 91C38.1875 88.3125 34.6875 85.625 32.375 82.75L25 108.812L3.5625 130.062C0.1875 133.438 0.625 137.812 3.5 140.312Z" fill="#297FA7"/>
</svg>
