<svg width="238" height="238" viewBox="0 0 238 238" fill="none" xmlns="http://www.w3.org/2000/svg">
<path d="M119 238C184.722 238 238 184.722 238 119C238 53.2781 184.722 0 119 0C53.2781 0 0 53.2781 0 119C0 184.722 53.2781 238 119 238Z" fill="url(#paint0_linear_239_235)"/>
<path d="M119.062 70.375C126.938 70.375 133.375 64 133.375 56C133.375 48.125 126.938 41.75 119.062 41.75C111.125 41.75 104.688 48.125 104.688 56C104.688 64 111.125 70.375 119.062 70.375ZM56.125 150.125H59.625C62.5625 150.125 64.625 148 64.625 145.062V132.438H73.375L73.0625 133.125C71.375 136.562 72.8125 140.75 76.0625 142.375C79.4375 144.125 83.5625 142.688 85.25 139.312L88.6875 132.438H149.438L152.812 139.312C154.5 142.688 158.625 144.125 162.062 142.375C165.25 140.75 166.688 136.562 165 133.125L164.688 132.438H173.375V145.062C173.375 148 175.375 150.125 178.375 150.125H181.875C184.812 150.125 186.875 148 186.875 145.062V132.438H191.5C193.875 132.438 195.812 130.5 195.812 128.125C195.812 125.688 193.875 123.75 191.5 123.75H186.875V111.125C186.875 108.125 184.812 106.062 181.875 106.062H178.375C175.375 106.062 173.375 108.125 173.375 111.125V123.75H160.375L141.625 85.8125C138.75 80 133.375 76.6875 126.688 76.6875H111.375C104.688 76.6875 99.3125 80 96.4375 85.8125L77.6875 123.75H64.625V111.125C64.625 108.125 62.5625 106.062 59.625 106.062H56.125C53.1875 106.062 51.125 108.125 51.125 111.125V123.75H46.5C44.0625 123.75 42.1875 125.688 42.1875 128.125C42.1875 130.5 44.0625 132.438 46.5 132.438H51.125V145.062C51.125 148 53.1875 150.125 56.125 150.125ZM104.562 117.188H133.562V104.312C133.562 103.312 134.938 103 135.438 104.125L145.125 123.75H92.9375L102.688 104.125C103.25 103 104.562 103.312 104.562 104.25V117.188ZM93.125 197.438C96.4375 198.062 100.188 196.375 101.188 191.75L107.125 164.438L119.062 143.75L130.938 164.438L136.875 191.75C137.875 196.562 141.938 198.188 145.25 197.312C148.5 196.562 151.188 193.438 150.188 188.75L144.125 160.5C144.062 160 143.938 159.562 143.75 159L136.688 139.062H101.438L94.3125 159C94.125 159.562 94 160 93.9375 160.5L87.875 188.75C86.875 193.625 89.75 196.75 93.125 197.438Z" fill="#F7F7F5"/>
<defs>
<linearGradient id="paint0_linear_239_235" x1="119" y1="0" x2="119" y2="238" gradientUnits="userSpaceOnUse">
<stop stop-color="#297FA7" stop-opacity="0.88"/>
<stop offset="0.479167" stop-color="#297FA7"/>
</linearGradient>
</defs>
</svg>
