<svg width="126" height="154" viewBox="0 0 126 154" fill="none" xmlns="http://www.w3.org/2000/svg">
<path d="M17.8125 1.9375C8 1.9375 0.3125 9.75 0.3125 19.5625C0.3125 27.1875 5.8125 35.3125 13.5 39.5625V60.8125C13.5 63 14.25 65 16 66.4375L33.9375 80.6875C36.25 82.5 38.875 82.375 41.8125 81.1875L61.75 72.8125C64.0625 71.875 65.375 73.125 65.625 74.8125L75.4375 128.875L48.4375 139.625C44.9375 141.062 43.1875 145.125 44.5 148.688C46.125 152.5 50 153.875 53.5625 152.438L85.8125 139.562C88.8125 138.375 90.4375 135.375 90.1875 132.312L88.375 107.188C88.1875 104.812 90.75 103.438 92.6875 104.688L111.875 117.562V146.125C111.875 149.875 114.938 153.062 118.75 153.062C122.562 153.062 125.688 149.875 125.688 146.125V113.875C125.688 111.438 124.375 109.562 122.625 108.062L97.6875 87.5625L92.8125 60.875C92.3125 58.1875 92.6875 55.6875 94 53.0625L115.062 11C116.75 7.5625 115.312 3.375 111.875 1.6875C108.5 0 104.312 1.375 102.625 4.6875L81.9375 46.1875C80.5 49.0625 78.5 50.875 75.5 52.125L39.1875 67.1875L24.75 55.5625C23.875 54.875 22.9375 54.625 22.125 54.5625V39.625C29.8125 35.3125 35.25 27.1875 35.25 19.5625C35.25 9.75 27.5625 1.9375 17.8125 1.9375ZM17.8125 10.625C22.8125 10.625 26.625 14.5 26.625 19.8125C26.625 25 22.9375 30.375 17.8125 32.1875C12.6875 30.375 9 25 9 19.8125C9 14.5 12.75 10.625 17.8125 10.625ZM62.0625 49.1875C69.9375 49.1875 76.375 42.75 76.375 34.875C76.375 26.9375 69.9375 20.5 62.0625 20.5C54.125 20.5 47.6875 26.9375 47.6875 34.875C47.6875 42.75 54.125 49.1875 62.0625 49.1875Z" fill="#297FA7"/>
</svg>
