<svg width="238" height="238" viewBox="0 0 238 238" fill="none" xmlns="http://www.w3.org/2000/svg">
<path d="M119 238C184.722 238 238 184.722 238 119C238 53.2781 184.722 0 119 0C53.2781 0 0 53.2781 0 119C0 184.722 53.2781 238 119 238Z" fill="url(#paint0_linear_239_210)"/>
<path d="M143.375 64.25C151.195 64.25 157.535 57.91 157.535 50.09C157.535 42.27 151.195 36 143.375 36C135.555 36 129.285 42.27 129.285 50.09C129.285 57.91 135.555 64.25 143.375 64.25ZM135.945 177.67C135.975 155.94 135.925 140.14 135.945 137.78C135.945 137.28 135.965 135.78 135.245 134.11C134.985 133.51 134.645 132.92 134.205 132.35L117.975 111.73L131.815 90.53C132.715 89.17 134.655 89.17 135.375 90.72L139.965 99.96C141.125 102.16 143.395 103.65 145.915 103.65H172.555C176.425 103.65 179.555 100.25 179.105 96.22C178.725 92.85 175.705 90.4 172.315 90.4H149.995L143.015 76.24C140.235 70.68 134.545 67.12 128.215 67.12H92.7551C90.5551 67.12 88.4251 68.22 87.1951 70.09L73.9451 90.07C71.9451 93.04 72.7851 97.18 75.8151 99.19C78.7851 101.26 82.9251 100.42 84.9951 97.32L96.3051 80.38H107.235C108.075 80.38 108.595 81.16 108.075 82L96.8951 98.81C93.4051 103.98 94.1151 111.03 98.5751 115.49L122.685 139.73V177.16C122.685 177.52 122.855 178.06 123.075 178.35C123.955 179.48 126.265 181.51 129.745 181.3C133.635 181.09 135.725 178.01 135.935 177.68L135.945 177.67ZM58.5551 125.15L84.6051 147.97C88.7451 151.65 93.3351 149.72 95.3351 146.55L105.355 131.1L94.3651 120.11C94.2351 119.92 94.1051 119.79 93.9151 119.59L87.3851 132.71L67.2151 115.13C64.4951 112.8 60.2951 113 57.9051 115.78C55.4451 118.56 55.7051 122.76 58.5551 125.15ZM121.425 196.06C124.465 196.06 127.045 193.54 127.045 190.5C127.045 187.46 124.455 184.88 121.425 184.88C118.395 184.88 115.805 187.47 115.805 190.5C115.805 193.53 118.395 196.06 121.425 196.06ZM135.965 196.06C139.005 196.06 141.525 193.54 141.525 190.5C141.525 187.46 139.005 184.88 135.965 184.88C132.925 184.88 130.345 187.47 130.345 190.5C130.345 193.53 132.935 196.06 135.965 196.06ZM122.875 149.72L122.695 176.48C122.695 180.06 125.585 183.12 129.255 183.12C132.965 183.17 135.985 180.23 135.945 176.52L134.965 141.56C135.065 136.02 131.895 134.13 128.185 134.68M51.5951 120.04C53.6951 117.85 53.6651 114.23 51.4751 112.13C49.2851 110.03 45.6251 110.11 43.5251 112.3C41.4251 114.49 41.5051 118.15 43.6951 120.25C45.8851 122.35 49.4951 122.23 51.6051 120.04H51.5951ZM61.6551 109.54C63.7551 107.35 63.6851 103.78 61.4851 101.68C59.2851 99.58 55.6751 99.61 53.5751 101.8C51.4751 103.99 51.5551 107.65 53.7451 109.75C55.9351 111.85 59.5451 111.73 61.6551 109.54Z" fill="#F7F7F5"/>
<defs>
<linearGradient id="paint0_linear_239_210" x1="119" y1="0" x2="119" y2="238" gradientUnits="userSpaceOnUse">
<stop stop-color="#297FA7" stop-opacity="0.88"/>
<stop offset="0.479167" stop-color="#297FA7"/>
</linearGradient>
</defs>
</svg>
