<svg width="238" height="238" viewBox="0 0 238 238" fill="none" xmlns="http://www.w3.org/2000/svg">
<path d="M233 119C233 181.96 181.96 233 119 233C56.0395 233 5 181.96 5 119C5 56.0395 56.0395 5 119 5C181.96 5 233 56.0395 233 119Z" stroke="#297FA7" stroke-width="10"/>
<path d="M137.625 74.6875C145.5 74.6875 151.938 68.25 151.938 60.3125C151.938 52.375 145.5 46 137.625 46C129.688 46 123.25 52.375 123.25 60.3125C123.25 68.25 129.688 74.6875 137.625 74.6875ZM73.625 121.625C77.8125 123.5 81.5 121.688 83.125 118.438L94.6875 95.375H108.125C109.438 95.375 110.188 96.5625 109.562 97.6875L97.4375 121.75C92.75 131 98.5 142.75 110.75 142L142.875 140L131.062 166.312C129.438 170 131 174.438 134.625 175.875C138.688 177.375 142.25 176.125 144.062 172.188L161 135C162.938 130.688 160.188 124.875 154.625 124.875H125.5L138.312 99.3125C138.75 98.3125 139.938 98.0625 140.75 98.875L156.125 113.562C159.438 116.812 165.375 116.25 167.688 111.688L181.125 84.625C182.875 81.0625 181.812 76.75 177.938 74.9375C174.375 73.25 170.062 74.6875 168.25 78.25L159.188 96.3125L152 89.0625C146.75 83.8125 141.125 81.0625 132.562 81.0625H90.25C87.5625 81.0625 85.0625 82.6875 83.875 85L70.3125 112.062C68.5 115.625 69.875 119.812 73.625 121.625ZM55.125 186.812C57.375 191.5 62.3125 191.562 64.625 190.562L98.25 175.938C99.8125 175.25 101.062 174.062 101.812 172.5L113.75 148.438L111.125 148.625C105.375 149 100.5 147.312 96.875 144.5L89.6875 163.875L58.8125 177.125C55.125 178.75 53.25 183 55.125 186.812ZM167.625 193.375C175.688 193.375 182.062 187.062 182.062 179C182.062 171.062 175.688 164.625 167.625 164.625C159.688 164.625 153.312 171.062 153.312 179C153.312 187.062 159.688 193.375 167.625 193.375Z" fill="#297FA7"/>
</svg>
