<svg width="238" height="238" viewBox="0 0 238 238" fill="none" xmlns="http://www.w3.org/2000/svg">
<path d="M233 119C233 181.96 181.96 233 119 233C56.0395 233 5 181.96 5 119C5 56.0395 56.0395 5 119 5C181.96 5 233 56.0395 233 119Z" stroke="#297FA7" stroke-width="10"/>
<path d="M118.5 88.75C126.312 88.75 132.75 82.375 132.75 74.375C132.75 66.5 126.312 60.125 118.5 60.125C110.5 60.125 104.062 66.5 104.062 74.375C104.062 82.375 110.5 88.75 118.5 88.75ZM52.6875 115.312L74 136.688C77.125 139.812 82.25 139.938 85.3125 136.125L98.1875 120.25C99 119.25 100.188 119.812 100.188 121V147.812L76.625 145.125C67.8125 144.125 64.9375 157.062 73.375 159.875L100.375 168.812C99.25 174.625 104.438 179.5 110.188 177.625L118.5 174.875L126.75 177.625C132.562 179.5 137.688 174.625 136.562 168.812L163.562 159.875C172.062 157.062 169.125 144.125 160.312 145.125L136.75 147.812V121C136.75 119.812 138 119.312 138.75 120.25L151.688 136.125C154.688 139.938 159.812 139.812 162.938 136.688L184.25 115.312C187.25 112.312 187.312 107.625 184.25 104.625C181.375 101.688 176.562 101.688 173.562 104.625L158.188 120.062L142.438 100.75C139.688 97.4375 135.562 95.25 131.125 95.25H105.812C101.375 95.25 97.25 97.4375 94.5 100.75L78.75 120.062L63.375 104.625C60.375 101.688 55.5625 101.688 52.6875 104.625C49.6875 107.625 49.6875 112.312 52.6875 115.312Z" fill="#297FA7"/>
</svg>
