<svg width="139" height="120" viewBox="0 0 139 120" fill="none" xmlns="http://www.w3.org/2000/svg">
<path d="M69.5 28.75C77.3125 28.75 83.75 22.375 83.75 14.375C83.75 6.5 77.3125 0.125 69.5 0.125C61.5 0.125 55.0625 6.5 55.0625 14.375C55.0625 22.375 61.5 28.75 69.5 28.75ZM3.6875 55.3125L25 76.6875C28.125 79.8125 33.25 79.9375 36.3125 76.125L49.1875 60.25C50 59.25 51.1875 59.8125 51.1875 61V87.8125L27.625 85.125C18.8125 84.125 15.9375 97.0625 24.375 99.875L51.375 108.812C50.25 114.625 55.4375 119.5 61.1875 117.625L69.5 114.875L77.75 117.625C83.5625 119.5 88.6875 114.625 87.5625 108.812L114.562 99.875C123.062 97.0625 120.125 84.125 111.312 85.125L87.75 87.8125V61C87.75 59.8125 89 59.3125 89.75 60.25L102.688 76.125C105.688 79.9375 110.812 79.8125 113.938 76.6875L135.25 55.3125C138.25 52.3125 138.312 47.625 135.25 44.625C132.375 41.6875 127.562 41.6875 124.562 44.625L109.188 60.0625L93.4375 40.75C90.6875 37.4375 86.5625 35.25 82.125 35.25H56.8125C52.375 35.25 48.25 37.4375 45.5 40.75L29.75 60.0625L14.375 44.625C11.375 41.6875 6.5625 41.6875 3.6875 44.625C0.6875 47.625 0.6875 52.3125 3.6875 55.3125Z" fill="#297FA7"/>
</svg>
