<svg width="152" height="98" viewBox="0 0 152 98" fill="none" xmlns="http://www.w3.org/2000/svg">
<path d="M75.9375 60.6875C86.4375 60.6875 90.375 53.125 101.562 51L56.5625 4.125C53.5625 1.0625 49.125 0.625 45.4375 3.25L20.5 21C15.9375 24.1875 16.375 29.0625 19 31.9375C21.25 34.375 25.1875 35.375 29 32.6875L48.9375 18.625L59.875 29.875C61.1875 31.1875 61.375 33 59.5625 34.25L33.1875 51.5C36.375 50.8125 40.125 50.375 45.0625 50.5C60.25 50.875 63.875 60.6875 75.9375 60.6875ZM102.188 34.1875C110.125 34.1875 116.562 27.75 116.562 19.8125C116.562 11.9375 110.125 5.5 102.188 5.5C94.3125 5.5 87.875 11.9375 87.875 19.8125C87.875 27.75 94.3125 34.1875 102.188 34.1875ZM4.3125 78.5H11.0625C28.5 78.5 32.1875 68.125 43.5 68.125C54.1875 68.125 58.5625 78.5 75.9375 78.5C93.375 78.5 97.75 68.125 108.375 68.125C119.75 68.125 123.438 78.5 140.812 78.5H147.562C149.875 78.5 151.75 76.6875 151.75 74.375C151.75 72.0625 149.875 70.25 147.562 70.25H140.812C129.062 70.25 125.125 59.8125 108.375 59.8125C92.375 59.8125 87.75 70.25 75.9375 70.25C64.1875 70.25 59.5 59.8125 43.5 59.8125C26.8125 59.8125 22.875 70.25 11.0625 70.25H4.3125C2 70.25 0.1875 72.0625 0.1875 74.375C0.1875 76.6875 2 78.5 4.3125 78.5ZM40.875 86.6875C43.0625 86.6875 44.875 84.9375 44.875 82.75C44.875 80.5 43.0625 78.75 40.875 78.75C38.625 78.75 36.875 80.5 36.875 82.75C36.875 84.9375 38.625 86.6875 40.875 86.6875ZM111.188 86.6875C113.375 86.6875 115.125 84.9375 115.125 82.75C115.125 80.5 113.375 78.75 111.188 78.75C108.938 78.75 107.188 80.5 107.188 82.75C107.188 84.9375 108.938 86.6875 111.188 86.6875ZM28.875 89.8125C31.0625 89.8125 32.875 88.0625 32.875 85.8125C32.875 83.625 31.0625 81.8125 28.875 81.8125C26.625 81.8125 24.875 83.625 24.875 85.8125C24.875 88.0625 26.625 89.8125 28.875 89.8125ZM52.8125 89.8125C55.0625 89.8125 56.8125 88.0625 56.8125 85.8125C56.8125 83.625 55.0625 81.8125 52.8125 81.8125C50.625 81.8125 48.875 83.625 48.875 85.8125C48.875 88.0625 50.625 89.8125 52.8125 89.8125ZM99.1875 89.8125C101.438 89.8125 103.188 88.0625 103.188 85.8125C103.188 83.625 101.438 81.8125 99.1875 81.8125C97 81.8125 95.1875 83.625 95.1875 85.8125C95.1875 88.0625 97 89.8125 99.1875 89.8125ZM123.188 89.8125C125.375 89.8125 127.125 88.0625 127.125 85.8125C127.125 83.625 125.375 81.8125 123.188 81.8125C120.938 81.8125 119.188 83.625 119.188 85.8125C119.188 88.0625 120.938 89.8125 123.188 89.8125ZM17.6875 95.0625C19.9375 95.0625 21.6875 93.3125 21.6875 91.0625C21.6875 88.875 19.9375 87.125 17.6875 87.125C15.5 87.125 13.6875 88.875 13.6875 91.0625C13.6875 93.3125 15.5 95.0625 17.6875 95.0625ZM64.0625 95.0625C66.3125 95.0625 68.0625 93.3125 68.0625 91.0625C68.0625 88.875 66.3125 87.125 64.0625 87.125C61.875 87.125 60.125 88.875 60.125 91.0625C60.125 93.3125 61.875 95.0625 64.0625 95.0625ZM87.9375 95.0625C90.1875 95.0625 91.9375 93.3125 91.9375 91.0625C91.9375 88.875 90.1875 87.125 87.9375 87.125C85.75 87.125 83.9375 88.875 83.9375 91.0625C83.9375 93.3125 85.75 95.0625 87.9375 95.0625ZM134.312 95.0625C136.562 95.0625 138.312 93.3125 138.312 91.0625C138.312 88.875 136.562 87.125 134.312 87.125C132.125 87.125 130.375 88.875 130.375 91.0625C130.375 93.3125 132.125 95.0625 134.312 95.0625ZM5.6875 97.1875C7.875 97.1875 9.6875 95.4375 9.6875 93.25C9.6875 91 7.875 89.25 5.6875 89.25C3.4375 89.25 1.6875 91 1.6875 93.25C1.6875 95.4375 3.4375 97.1875 5.6875 97.1875ZM76 97.1875C78.25 97.1875 80 95.4375 80 93.25C80 91 78.25 89.25 76 89.25C73.8125 89.25 72 91 72 93.25C72 95.4375 73.8125 97.1875 76 97.1875ZM146.312 97.1875C148.562 97.1875 150.312 95.4375 150.312 93.25C150.312 91 148.562 89.25 146.312 89.25C144.125 89.25 142.312 91 142.312 93.25C142.312 95.4375 144.125 97.1875 146.312 97.1875Z" fill="#297FA7"/>
</svg>
